{
  "accessors": [
    {
      "bufferView": 2,
      "componentType": 5126,
      "count": 144,
      "max": [
        133.76953125,
        131.42759704589844,
        -43.6333122253418
      ],
      "min": [
        -133.5252227783203,
        -35.67599105834961,
        -199.73971557617188
      ],
      "type": "VEC3"
    },
    {
      "bufferView": 2,
      "byteOffset": 1728,
      "componentType": 5126,
      "count": 144,
      "max": [
        0.9972563982009888,
        1.0,
        0.9999990463256836
      ],
      "min": [
        -0.9973354935646057,
        -0.997127890586853,
        -0.9999552369117737
      ],
      "type": "VEC3"
    },
    {
      "bufferView": 1,
      "componentType": 5126,
      "count": 144,
      "max": [
        0.44574588537216187,
        0.8978577852249146
      ],
      "min": [
        0.05363195762038231,
        0.40062272548675537
      ],
      "type": "VEC2"
    },
    {
      "bufferView": 0,
      "componentType": 5125,
      "count": 216,
      "type": "SCALAR"
    },
    {
      "bufferView": 2,
      "byteOffset": 3456,
      "componentType": 5126,
      "count": 5575,
      "max": [
        343.49346923828125,
        393.2085266113281,
        330.9673156738281
      ],
      "min": [
        -322.33807373046875,
        0.15093697607517242,
        -344.5108337402344
      ],
      "type": "VEC3"
    },
    {
      "bufferView": 2,
      "byteOffset": 70356,
      "componentType": 5126,
      "count": 5575,
      "max": [
        0.9989396333694458,
        0.9999856352806091,
        0.9998698234558105
      ],
      "min": [
        -0.9989921450614929,
        -0.9990586042404175,
        -0.9999384880065918
      ],
      "type": "VEC3"
    },
    {
      "bufferView": 1,
      "byteOffset": 1152,
      "componentType": 5126,
      "count": 5575,
      "max": [
        1.1308019161224365,
        0.9967980980873108
      ],
      "min": [
        0.0021406873129308224,
        0.5001422166824341
      ],
      "type": "VEC2"
    },
    {
      "bufferView": 0,
      "byteOffset": 864,
      "componentType": 5125,
      "count": 12438,
      "type": "SCALAR"
    }
  ],
  "asset": {
    "extras": {
      "author": "marsmicro (https://sketchfab.com/marsmicro775071)",
      "license": "CC-BY-4.0 (http://creativecommons.org/licenses/by/4.0/)",
      "source": "https://sketchfab.com/3d-models/igloo-e581c2f769f64515b54ab1d5bc348bd4",
      "title": "Igloo"
    },
    "generator": "Sketchfab-15.40.0",
    "version": "2.0"
  },
  "bufferViews": [
    {
      "buffer": 0,
      "byteLength": 50616,
      "name": "floatBufferViews",
      "target": 34963
    },
    {
      "buffer": 0,
      "byteLength": 45752,
      "byteOffset": 50616,
      "byteStride": 8,
      "name": "floatBufferViews",
      "target": 34962
    },
    {
      "buffer": 0,
      "byteLength": 137256,
      "byteOffset": 96368,
      "byteStride": 12,
      "name": "floatBufferViews",
      "target": 34962
    }
  ],
  "buffers": [
    {
      "byteLength": 233624,
      "uri": "scene.bin"
    }
  ],
  "materials": [
    {
      "doubleSided": true,
      "emissiveFactor": [
        0.37554999999999994,
        0.37554999999999994,
        0.37554999999999994
      ],
      "name": "material",
      "pbrMetallicRoughness": {
        "baseColorFactor": [
          0.71819,
          0.71819,
          0.71819,
          1.0
        ],
        "metallicFactor": 0.0,
        "roughnessFactor": 0.6
      }
    }
  ],
  "meshes": [
    {
      "name": "Tube_1_2_Mat_0",
      "primitives": [
        {
          "attributes": {
            "NORMAL": 1,
            "POSITION": 0,
            "TEXCOORD_0": 2
          },
          "indices": 3,
          "material": 0,
          "mode": 4
        }
      ]
    },
    {
      "name": "Sphere001_2_Mat_0",
      "primitives": [
        {
          "attributes": {
            "NORMAL": 5,
            "POSITION": 4,
            "TEXCOORD_0": 6
          },
          "indices": 7,
          "material": 0,
          "mode": 4
        }
      ]
    }
  ],
  "nodes": [
    {
      "children": [
        1
      ],
      "matrix": [
        1.0,
        0.0,
        0.0,
        0.0,
        0.0,
        2.220446049250313e-16,
        -1.0,
        0.0,
        0.0,
        1.0,
        2.220446049250313e-16,
        0.0,
        0.0,
        0.0,
        0.0,
        1.0
      ],
      "name": "Sketchfab_model"
    },
    {
      "children": [
        2
      ],
      "matrix": [
        0.009999999776482582,
        0.0,
        0.0,
        0.0,
        0.0,
        0.0,
        0.009999999776482582,
        0.0,
        0.0,
        -0.009999999776482582,
        0.0,
        0.0,
        0.0,
        0.0,
        0.0,
        1.0
      ],
      "name": "0f306585224d47aea45b21f7db546a67.fbx"
    },
    {
      "children": [
        3,
        5,
        8,
        15,
        18,
        21,
        24
      ],
      "name": "RootNode"
    },
    {
      "children": [
        4
      ],
      "matrix": [
        -0.5143127130051259,
        -0.12033671018473649,
        -0.8491180774328277,
        0.0,
        -0.06234374349273345,
        0.9927331344233025,
        -0.10292804022907226,
        0.0,
        0.8553336722523084,
        2.983724378680108e-16,
        -0.5180775126478476,
        0.0,
        878.51123046875,
        337.7103576660156,
        1752.6492919921875,
        1.0
      ],
      "name": "CINEMA_4D_Editor"
    },
    {
      "name": "Object_4"
    },
    {
      "children": [
        6
      ],
      "matrix": [
        1.0,
        0.0,
        0.0,
        0.0,
        0.0,
        2.220446049250313e-16,
        1.0,
        0.0,
        0.0,
        -1.0,
        2.220446049250313e-16,
        0.0,
        -35.47724914550781,
        15.601584434509277,
        299.9768981933594,
        1.0
      ],
      "name": "Light_3"
    },
    {
      "children": [
        7
      ],
      "matrix": [
        1.0,
        0.0,
        0.0,
        0.0,
        0.0,
        2.220446049250313e-16,
        1.0,
        0.0,
        0.0,
        -1.0,
        2.220446049250313e-16,
        0.0,
        0.0,
        0.0,
        0.0,
        1.0
      ],
      "name": "Object_6"
    },
    {
      "name": "Object_7"
    },
    {
      "children": [
        9,
        12
      ],
      "matrix": [
        1.0,
        0.0,
        0.0,
        0.0,
        0.0,
        1.0,
        0.0,
        0.0,
        0.0,
        0.0,
        1.0,
        0.0,
        0.0,
        -3.157444477081299,
        0.0,
        1.0
      ],
      "name": "igloo"
    },
    {
      "children": [
        10
      ],
      "matrix": [
        1.0,
        0.0,
        0.0,
        0.0,
        0.0,
        1.0,
        0.0,
        0.0,
        0.0,
        0.0,
        1.0,
        0.0,
        -19.340164184570313,
        35.31989669799805,
        430.5563659667969,
        1.0
      ],
      "name": "Tube_1"
    },
    {
      "children": [
        11
      ],
      "name": "Tube_1_2"
    },
    {
      "mesh": 0,
      "name": "Tube_1_2_Mat_0"
    },
    {
      "children": [
        13
      ],
      "name": "Sphere001"
    },
    {
      "children": [
        14
      ],
      "name": "Sphere001_2"
    },
    {
      "mesh": 1,
      "name": "Sphere001_2_Mat_0"
    },
    {
      "children": [
        16
      ],
      "matrix": [
        1.0,
        0.0,
        0.0,
        0.0,
        0.0,
        2.220446049250313e-16,
        1.0,
        0.0,
        0.0,
        -1.0,
        2.220446049250313e-16,
        0.0,
        2440.469482421875,
        501.5606384277344,
        -2294.163818359375,
        1.0
      ],
      "name": "Light_2"
    },
    {
      "children": [
        17
      ],
      "matrix": [
        1.0,
        0.0,
        0.0,
        0.0,
        0.0,
        2.220446049250313e-16,
        1.0,
        0.0,
        0.0,
        -1.0,
        2.220446049250313e-16,
        0.0,
        0.0,
        0.0,
        0.0,
        1.0
      ],
      "name": "Object_16"
    },
    {
      "name": "Object_17"
    },
    {
      "children": [
        19
      ],
      "matrix": [
        1.0,
        0.0,
        0.0,
        0.0,
        0.0,
        2.220446049250313e-16,
        1.0,
        0.0,
        0.0,
        -1.0,
        2.220446049250313e-16,
        0.0,
        -667.669189453125,
        431.9007263183594,
        119.35502624511719,
        1.0
      ],
      "name": "Light_1"
    },
    {
      "children": [
        20
      ],
      "matrix": [
        1.0,
        0.0,
        0.0,
        0.0,
        0.0,
        2.220446049250313e-16,
        1.0,
        0.0,
        0.0,
        -1.0,
        2.220446049250313e-16,
        0.0,
        0.0,
        0.0,
        0.0,
        1.0
      ],
      "name": "Object_19"
    },
    {
      "name": "Object_20"
    },
    {
      "children": [
        22
      ],
      "matrix": [
        1.0,
        0.0,
        0.0,
        0.0,
        0.0,
        2.220446049250313e-16,
        1.0,
        0.0,
        0.0,
        -1.0,
        2.220446049250313e-16,
        0.0,
        -1129.01904296875,
        745.6405639648438,
        0.0,
        1.0
      ],
      "name": "Light"
    },
    {
      "children": [
        23
      ],
      "matrix": [
        1.0,
        0.0,
        0.0,
        0.0,
        0.0,
        2.220446049250313e-16,
        1.0,
        0.0,
        0.0,
        -1.0,
        2.220446049250313e-16,
        0.0,
        0.0,
        0.0,
        0.0,
        1.0
      ],
      "name": "Object_22"
    },
    {
      "name": "Object_23"
    },
    {
      "children": [
        25
      ],
      "matrix": [
        0.9999999999999942,
        -7.884616677372799e-08,
        -7.269849086312985e-08,
        0.0,
        -7.342387618646795e-08,
        -0.009239363217958374,
        -0.9999573161727061,
        0.0,
        7.817111355508075e-08,
        0.9999573161727057,
        -0.009239363217964147,
        0.0,
        -6.0756144523620605,
        78.949951171875,
        200.84022521972656,
        1.0
      ],
      "name": "Light_3_2"
    },
    {
      "children": [
        26
      ],
      "matrix": [
        1.0,
        0.0,
        0.0,
        0.0,
        0.0,
        2.220446049250313e-16,
        1.0,
        0.0,
        0.0,
        -1.0,
        2.220446049250313e-16,
        0.0,
        0.0,
        0.0,
        0.0,
        1.0
      ],
      "name": "Object_25"
    },
    {
      "name": "Object_26"
    }
  ],
  "scene": 0,
  "scenes": [
    {
      "name": "Sketchfab_Scene",
      "nodes": [
        0
      ]
    }
  ]
}
